<?xml version="1.0" standalone="no"?>
<!DOCTYPE svg PUBLIC "-//W3C//DTD SVG 20010904//EN"
 "http://www.w3.org/TR/2001/REC-SVG-20010904/DTD/svg10.dtd">
<svg version="1.0" xmlns="http://www.w3.org/2000/svg"
 width="300.000000pt" height="75.000000pt" viewBox="0 0 300.000000 75.000000"
 preserveAspectRatio="xMidYMid meet">

<g transform="translate(0.000000,75.000000) scale(0.100000,-0.100000)"
fill="#000000" stroke="none">
<path d="M0 375 l0 -375 1500 0 1500 0 0 375 0 375 -1500 0 -1500 0 0 -375z
m2196 230 c28 -18 42 -49 51 -112 l6 -43 -52 0 c-47 0 -51 2 -51 24 0 37 -10
56 -30 56 -10 0 -21 -7 -24 -16 -8 -20 -8 -262 0 -292 7 -25 39 -30 48 -6 12
32 6 93 -10 102 -11 6 -14 20 -12 48 l3 39 60 0 60 0 3 -147 3 -148 -25 0
c-13 0 -27 7 -30 16 -6 15 -8 15 -24 0 -51 -46 -134 -26 -163 38 -27 59 -28
343 -1 396 32 66 124 88 188 45z m-1984 -197 l3 -213 53 -3 52 -3 0 -40 0 -39
-100 0 -100 0 0 255 0 255 45 0 45 0 2 -212z m346 165 l3 -43 -50 0 -51 0 0
-55 0 -55 45 0 45 0 0 -45 0 -45 -45 0 -45 0 0 -65 0 -65 50 0 50 0 0 -45 0
-45 -100 0 -100 0 0 255 0 256 98 -3 97 -3 3 -42z m257 5 c5 -43 45 -443 45
-459 0 -5 -20 -9 -45 -9 l-45 0 0 40 0 40 -40 0 -40 0 0 -40 0 -40 -45 0 c-38
0 -45 3 -45 19 0 21 37 380 46 449 l5 42 79 0 79 0 6 -42z m302 9 c28 -27 28
-29 31 -178 5 -181 -2 -230 -33 -267 -22 -25 -29 -27 -119 -30 l-96 -4 0 249
c0 137 3 253 8 257 4 4 46 6 94 4 80 -3 90 -5 115 -31z m291 0 c4 -32 -9 -76
-72 -247 -26 -69 -44 -130 -42 -136 2 -6 16 -9 30 -7 14 3 37 2 51 -1 21 -5
25 -12 25 -46 l0 -40 -105 0 -105 0 1 48 c0 31 19 99 58 207 l59 160 -54 3
-54 3 0 45 0 45 103 -3 102 -3 3 -28z m242 -17 l0 -50 -50 0 -50 0 0 -50 0
-50 50 0 50 0 0 -44 c0 -48 -9 -56 -66 -56 l-34 0 0 -54 0 -55 53 -3 52 -3 3
-47 3 -48 -110 0 -111 0 0 255 0 255 105 0 105 0 0 -50z m154 33 c3 -10 10
-49 17 -88 18 -111 28 -111 29 3 l0 102 50 0 50 0 0 -256 0 -255 -52 3 -52 3
-22 100 -22 100 -1 -102 -1 -103 -55 0 -55 0 0 255 0 255 54 0 c43 0 56 -4 60
-17z m576 -238 l0 -255 -50 0 -50 0 0 255 0 255 50 0 50 0 0 -255z m175 150
l20 -100 3 103 3 102 49 0 50 0 0 -255 0 -255 -49 0 c-57 0 -51 -9 -78 125
l-18 90 -3 -107 -3 -108 -49 0 -50 0 0 256 0 255 52 -3 53 -3 20 -100z m375
55 l0 -50 -51 0 -50 0 3 -47 3 -48 48 -3 48 -3 -3 -47 -3 -47 -47 -3 -48 -3 0
-54 0 -54 53 -3 52 -3 3 -47 3 -48 -105 0 -106 0 0 255 0 255 100 0 100 0 0
-50z"/>
<path d="M716 473 c-3 -32 -8 -91 -12 -130 l-6 -73 32 0 32 0 -6 53 c-3 28 -8
87 -12 130 -3 42 -10 77 -14 77 -5 0 -11 -26 -14 -57z"/>
<path d="M1000 365 c0 -167 1 -175 20 -175 33 0 40 33 40 179 0 114 -3 142
-16 155 -8 9 -22 16 -30 16 -12 0 -14 -30 -14 -175z"/>
</g>
</svg>
